<?xml version="1.0" encoding="UTF-8"?>
<svg id="_레이어_1" data-name="레이어 1" xmlns="http://www.w3.org/2000/svg" viewBox="0 0 294.14 52.34">
  <defs>
    <style>
      .cls-1 {
        fill: #fff;
        stroke-width: 0px;
      }
    </style>
  </defs>
  <path class="cls-1" d="M0,37.53V3.88h5.12v31.23h5.76c5.06,0,7.27-.43,9.58-.97v3.39H0Z"/>
  <path class="cls-1" d="M44.21,35.54c-2.05,1.72-4.69,2.8-8.29,2.8-6.78,0-11.79-5.22-11.79-12.87s5.33-13.41,11.9-13.41,9.64,4.31,9.64,9.37c0,.54-.05,1.72-.16,2.48h-16.48c-.05.43-.05.92-.05,1.29,0,5.92,3.12,10.39,8.45,10.39,1.94,0,3.93-.7,5.55-2.1l1.24,2.05ZM40.92,21.65c0-4.36-1.72-7.16-5.12-7.16-2.64,0-5.55,2.53-6.52,7.16h11.63Z"/>
  <path class="cls-1" d="M53.73,38.88c-2.05-.54-3.39-2.64-3.39-4.42,0-2.21,1.08-4.09,4.42-5.38v-.27c-2.69-1.35-4.42-3.82-4.42-7.54,0-5.22,4.31-9.21,10.07-9.21,1.83,0,3.34.22,4.85.81h9.8v2.53l-7-.16v.38c1.56,1.83,2.15,3.5,2.15,5.22,0,5.22-4.42,9.21-9.96,9.21-.97,0-2.15-.16-3.07-.32-1.62.59-2.69,1.45-2.69,2.75s1.4,2.48,3.45,2.48c3.12,0,4.58-.11,6.79-.11,4.79,0,8.29,2.96,8.29,7.7,0,5.98-6.08,9.8-13.79,9.8-7,0-10.72-2.91-10.72-6.84,0-2.91,1.67-5.01,5.22-6.35v-.27ZM52.98,44.53c0,3.39,2.91,5.38,7.65,5.38s8.08-2.69,8.08-6.08c0-2.8-1.72-4.47-6.14-4.47-1.99,0-3.34.11-5.65.11-2.15.81-3.93,2.53-3.93,5.06ZM65.58,21.7c0-4.09-2.05-7.43-5.17-7.43s-5.33,2.53-5.33,6.14c0,4.09,2.05,7.38,5.17,7.38s5.33-2.53,5.33-6.08Z"/>
  <path class="cls-1" d="M92.23,37.53v-3.61h-.22c-1.83,2.8-4.09,4.42-7.97,4.42-3.66,0-6.68-2.85-6.68-6.68,0-4.95,4.79-7.48,14-9.8l.86-.22c0-4.2-1.18-7.16-4.95-7.16-2.26,0-4.95,1.51-6.68,4.42l-2.05-3.02c3.18-2.69,5.82-3.82,9.42-3.82,5.87,0,8.78,2.8,8.78,10.23v15.24h-4.52ZM92.23,23.8l-1.35.38c-6.46,1.83-8.88,4.09-8.88,6.57s1.62,4.04,3.93,4.04,4.69-1.45,6.3-3.82v-7.16Z"/>
  <path class="cls-1" d="M104.18,37.53V1.35l4.52-1.35v37.53h-4.52Z"/>
  <path class="cls-1" d="M129.49,32.42c2.8,2.15,5.6,3.55,9.15,3.55,5.44,0,7.7-3.28,7.7-6.25s-1.72-5.17-8.83-7.59c-6.68-2.26-9.32-5.17-9.32-9.85s3.34-9.21,11.42-9.21c3.93,0,7.92.97,9.8,1.88l-1.13,3.61c-2.69-2.1-5.49-3.12-9.05-3.12-4.2,0-6.68,2.64-6.68,5.44,0,3.34,2.26,5.12,8.29,7.27,7.54,2.69,10.07,5.65,10.07,10.34,0,5.06-3.72,9.85-12.6,9.85-3.72,0-7.86-1.08-9.96-2.21l1.13-3.72Z"/>
  <path class="cls-1" d="M175.74,35.54c-2.05,1.72-4.69,2.8-8.29,2.8-6.78,0-11.79-5.22-11.79-12.87s5.33-13.41,11.9-13.41,9.64,4.31,9.64,9.37c0,.54-.05,1.72-.16,2.48h-16.48c-.05.43-.05.92-.05,1.29,0,5.92,3.12,10.39,8.45,10.39,1.94,0,3.93-.7,5.55-2.1l1.24,2.05ZM172.45,21.65c0-4.36-1.72-7.16-5.12-7.16-2.64,0-5.55,2.53-6.52,7.16h11.63Z"/>
  <path class="cls-1" d="M183.11,37.53V13.57l4.52-1.35v4.79h.27c1.4-3.02,3.61-4.95,6.57-4.95,1.24,0,2.37.32,3.45.92l-.97,4.58c-.97-1.08-2.1-1.78-3.5-1.78-2.58,0-4.9,2.48-5.82,7.92v13.84h-4.52Z"/>
  <path class="cls-1" d="M210.9,37.64l-10.18-24.77h5.06l7.65,19.33,7.65-19.33h2.75l-10.23,24.77h-2.69Z"/>
  <path class="cls-1" d="M240.46,37.53v-3.61h-.22c-1.83,2.8-4.09,4.42-7.97,4.42-3.66,0-6.68-2.85-6.68-6.68,0-4.95,4.79-7.48,14-9.8l.86-.22c0-4.2-1.18-7.16-4.95-7.16-2.26,0-4.95,1.51-6.68,4.42l-2.05-3.02c3.18-2.69,5.82-3.82,9.42-3.82,5.87,0,8.78,2.8,8.78,10.23v15.24h-4.52ZM240.46,23.8l-1.35.38c-6.46,1.83-8.88,4.09-8.88,6.57s1.62,4.04,3.93,4.04,4.69-1.45,6.3-3.82v-7.16Z"/>
  <path class="cls-1" d="M268.02,37.53v-15.78c0-4.47-1.56-6.14-4.69-6.14-2.15,0-4.68,1.67-6.41,3.77v18.15h-4.52V13.57l4.52-1.35v3.98h.27c2.53-2.75,5.22-4.15,8.29-4.15,5.01,0,7.05,3.55,7.05,7.97v17.5h-4.52Z"/>
  <path class="cls-1" d="M294.14,35.32c-1.78,1.94-3.72,3.02-6.57,3.02-3.66,0-6.35-2.15-6.35-7.86v-15.08h-4.04v-2.53h4.04v-7.11l4.52-1.35v8.45h7.65v2.53h-7.65v15.67c0,3.07,1.29,4.36,3.12,4.36,1.51,0,2.85-.86,4.15-2.26l1.13,2.15Z"/>
</svg>