<?xml version="1.0" encoding="UTF-8"?>
<svg id="_레이어_1" data-name="레이어 1" xmlns="http://www.w3.org/2000/svg" viewBox="0 0 184.92 127.18">
  <defs>
    <style>
      .cls-1 {
        fill: #307ac0;
      }

      .cls-1, .cls-2 {
        stroke-width: 0px;
      }

      .cls-2 {
        fill: #274d79;
      }
    </style>
  </defs>
  <g>
    <path class="cls-1" d="m0,126.99v-7.75h1.18v7.19h1.33c1.17,0,1.67-.1,2.21-.22v.78H0Z"/>
    <path class="cls-1" d="m10.18,126.53c-.47.4-1.08.64-1.91.64-1.56,0-2.72-1.2-2.72-2.96s1.23-3.09,2.74-3.09,2.22.99,2.22,2.16c0,.12-.01.4-.04.57h-3.79c-.01.1-.01.21-.01.3,0,1.36.72,2.39,1.95,2.39.45,0,.91-.16,1.28-.48l.29.47Zm-.76-3.2c0-1-.4-1.65-1.18-1.65-.61,0-1.28.58-1.5,1.65h2.68Z"/>
    <path class="cls-1" d="m15.14,126.48c-.41.45-.86.69-1.51.69-.84,0-1.46-.5-1.46-1.81v-3.47h-.93v-.58h.93v-1.64l1.04-.31v1.95h1.76v.58h-1.76v3.61c0,.71.3,1,.72,1,.35,0,.66-.2.95-.52l.26.5Z"/>
    <path class="cls-1" d="m22.77,126.99v-.77h-.06c-.58.63-1.2.95-1.91.95-1.15,0-1.62-.82-1.62-1.84v-4.03h1.04v3.63c0,1.03.37,1.41,1.09,1.41.5,0,1.07-.38,1.46-.87v-4.18h1.04v5.68h-1.04Z"/>
    <path class="cls-1" d="m25.57,125.93c.38.41.91.71,1.54.71.79,0,1.31-.34,1.31-.93,0-.5-.47-.82-1.6-1.18-1.08-.35-1.63-.91-1.63-1.75,0-.89.67-1.65,2.1-1.65.73,0,1.41.16,1.91.47l-.34.77c-.36-.4-.93-.69-1.59-.69-.72,0-1.14.31-1.14.81,0,.46.35.74,1.44,1.13,1.29.46,1.79.94,1.79,1.77,0,.94-.73,1.8-2.24,1.8-.67,0-1.4-.14-1.91-.47l.36-.78Z"/>
    <path class="cls-1" d="m37.32,126.99v-.71h-.05c-.45.56-.97.89-1.8.89-1.39,0-2.17-1.29-2.17-2.86s.93-3.1,2.77-3.1c.45,0,.89.09,1.25.24v-2.79l1.04-.31v8.64h-1.04Zm0-4.85c-.32-.24-.71-.38-1.14-.38-1,0-1.76.94-1.76,2.33s.6,2.28,1.61,2.28c.55,0,1.03-.41,1.29-.89v-3.34Z"/>
    <path class="cls-1" d="m39.72,124.22c0-1.77,1.12-3.09,2.88-3.09s2.78,1.2,2.78,2.96-1.12,3.09-2.88,3.09-2.78-1.2-2.78-2.96Zm4.54.02c0-1.75-.86-2.55-1.76-2.55s-1.66.86-1.66,2.38c0,1.75.84,2.55,1.75,2.55s1.67-.86,1.67-2.38Z"/>
    <path class="cls-1" d="m52.98,126.48c-.41.45-.86.69-1.51.69-.84,0-1.46-.5-1.46-1.81v-3.47h-.93v-.58h.93v-1.64l1.04-.31v1.95h1.76v.58h-1.76v3.61c0,.71.3,1,.72,1,.35,0,.66-.2.95-.52l.26.5Z"/>
    <path class="cls-1" d="m57.71,126.99v-3.63c0-1.03-.37-1.41-1.09-1.41-.5,0-1.07.38-1.46.87v4.18h-1.04v-8.33l1.04-.31v3.73h.06c.58-.63,1.19-.95,1.9-.95,1.15,0,1.64.82,1.64,1.84v4.03h-1.04Z"/>
    <path class="cls-1" d="m64.67,126.53c-.47.4-1.08.64-1.91.64-1.56,0-2.72-1.2-2.72-2.96s1.23-3.09,2.74-3.09,2.22.99,2.22,2.16c0,.12-.01.4-.04.57h-3.79c-.01.1-.01.21-.01.3,0,1.36.72,2.39,1.95,2.39.45,0,.91-.16,1.28-.48l.29.47Zm-.76-3.2c0-1-.4-1.65-1.18-1.65-.61,0-1.28.58-1.5,1.65h2.68Z"/>
    <path class="cls-1" d="m69.34,126.99v-8.33l1.04-.31v8.64h-1.04Z"/>
    <path class="cls-1" d="m75.16,126.99v-.83h-.05c-.42.64-.94,1.02-1.84,1.02-.84,0-1.54-.66-1.54-1.54,0-1.14,1.1-1.72,3.22-2.26l.2-.05c0-.97-.27-1.65-1.14-1.65-.52,0-1.14.35-1.54,1.02l-.47-.69c.73-.62,1.34-.88,2.17-.88,1.35,0,2.02.64,2.02,2.36v3.51h-1.04Zm0-3.16l-.31.09c-1.49.42-2.05.94-2.05,1.51s.37.93.91.93,1.08-.34,1.45-.88v-1.65Z"/>
    <path class="cls-1" d="m77.91,127.12v-8.46l1.04-.31v3.67h.05c.45-.56.98-.89,1.8-.89,1.39,0,2.17,1.29,2.17,2.86s-.93,3.1-2.77,3.1c-.51,0-.99-.11-1.38-.28l-.92.31Zm1.04-.95c.32.24.71.38,1.14.38,1,0,1.76-.94,1.76-2.33s-.6-2.28-1.61-2.28c-.55,0-1.03.41-1.29.89v3.34Z"/>
    <path class="cls-1" d="m84.1,124.22c0-1.77,1.12-3.09,2.88-3.09s2.78,1.2,2.78,2.96-1.12,3.09-2.88,3.09-2.78-1.2-2.78-2.96Zm4.54.02c0-1.75-.86-2.55-1.76-2.55s-1.66.86-1.66,2.38c0,1.75.84,2.55,1.75,2.55s1.67-.86,1.67-2.38Z"/>
    <path class="cls-1" d="m91.11,126.99v-5.52l1.04-.31v1.1h.06c.32-.69.83-1.14,1.51-1.14.28,0,.55.07.79.21l-.22,1.05c-.22-.25-.48-.41-.81-.41-.59,0-1.13.57-1.34,1.82v3.19h-1.04Z"/>
  </g>
  <path class="cls-2" d="m0,41.82V4.32h5.7v34.8h6.42c5.64,0,8.1-.48,10.68-1.08v3.78H0Z"/>
  <path class="cls-2" d="m47.26,39.6c-2.28,1.92-5.22,3.12-9.24,3.12-7.56,0-13.14-5.82-13.14-14.34s5.94-14.94,13.26-14.94,10.74,4.8,10.74,10.44c0,.6-.06,1.92-.18,2.76h-18.36c-.06.48-.06,1.02-.06,1.44,0,6.6,3.48,11.58,9.42,11.58,2.16,0,4.38-.78,6.18-2.34l1.38,2.28Zm-3.66-15.48c0-4.86-1.92-7.98-5.7-7.98-2.94,0-6.18,2.82-7.26,7.98h12.96Z"/>
  <path class="cls-2" d="m57.88,43.32c-2.28-.6-3.78-2.94-3.78-4.92,0-2.46,1.2-4.56,4.92-6v-.3c-3-1.5-4.92-4.26-4.92-8.4,0-5.82,4.8-10.26,11.22-10.26,2.04,0,3.72.24,5.4.9h10.92v2.82l-7.8-.18v.42c1.74,2.04,2.4,3.9,2.4,5.82,0,5.82-4.92,10.26-11.1,10.26-1.08,0-2.4-.18-3.42-.36-1.8.66-3,1.62-3,3.06s1.56,2.76,3.84,2.76c3.48,0,5.1-.12,7.56-.12,5.34,0,9.24,3.3,9.24,8.58,0,6.66-6.78,10.92-15.36,10.92-7.8,0-11.94-3.24-11.94-7.62,0-3.24,1.86-5.58,5.82-7.08v-.3Zm-.84,6.3c0,3.78,3.24,6,8.52,6s9-3,9-6.78c0-3.12-1.92-4.98-6.84-4.98-2.22,0-3.72.12-6.3.12-2.4.9-4.38,2.82-4.38,5.64Zm14.04-25.44c0-4.56-2.28-8.28-5.76-8.28s-5.94,2.82-5.94,6.84c0,4.56,2.28,8.22,5.76,8.22s5.94-2.82,5.94-6.78Z"/>
  <path class="cls-2" d="m100.78,41.82v-4.02h-.24c-2.04,3.12-4.56,4.92-8.88,4.92-4.08,0-7.44-3.18-7.44-7.44,0-5.52,5.34-8.34,15.6-10.92l.96-.24c0-4.68-1.32-7.98-5.52-7.98-2.52,0-5.52,1.68-7.44,4.92l-2.28-3.36c3.54-3,6.48-4.26,10.5-4.26,6.54,0,9.78,3.12,9.78,11.4v16.98h-5.04Zm0-15.3l-1.5.42c-7.2,2.04-9.9,4.56-9.9,7.32s1.8,4.5,4.38,4.5,5.22-1.62,7.02-4.26v-7.98Z"/>
  <path class="cls-2" d="m114.1,41.82V1.5l5.04-1.5v41.82h-5.04Z"/>
  <g>
    <path class="cls-2" d="m1.44,96.25c3.12,2.4,6.24,3.96,10.2,3.96,6.06,0,8.58-3.66,8.58-6.96s-1.92-5.76-9.84-8.46c-7.44-2.52-10.38-5.76-10.38-10.98s3.72-10.26,12.72-10.26c4.38,0,8.82,1.08,10.92,2.1l-1.26,4.02c-3-2.34-6.12-3.48-10.08-3.48-4.68,0-7.44,2.94-7.44,6.06,0,3.72,2.52,5.7,9.24,8.1,8.4,3,11.22,6.3,11.22,11.52,0,5.64-4.14,10.98-14.04,10.98-4.14,0-8.76-1.2-11.1-2.46l1.26-4.14Z"/>
    <path class="cls-2" d="m52.98,99.73c-2.28,1.92-5.22,3.12-9.24,3.12-7.56,0-13.14-5.82-13.14-14.34s5.94-14.94,13.26-14.94,10.74,4.8,10.74,10.44c0,.6-.06,1.92-.18,2.76h-18.36c-.06.48-.06,1.02-.06,1.44,0,6.6,3.48,11.58,9.42,11.58,2.16,0,4.38-.78,6.18-2.34l1.38,2.28Zm-3.66-15.48c0-4.86-1.92-7.98-5.7-7.98-2.94,0-6.18,2.82-7.26,7.98h12.96Z"/>
    <path class="cls-2" d="m61.2,101.95v-26.7l5.04-1.5v5.34h.3c1.56-3.36,4.02-5.52,7.32-5.52,1.38,0,2.64.36,3.84,1.02l-1.08,5.1c-1.08-1.2-2.34-1.98-3.9-1.98-2.88,0-5.46,2.76-6.48,8.82v15.42h-5.04Z"/>
    <path class="cls-2" d="m92.16,102.07l-11.34-27.6h5.64l8.52,21.54,8.52-21.54h3.06l-11.4,27.6h-3Z"/>
    <path class="cls-2" d="m125.1,101.95v-4.02h-.24c-2.04,3.12-4.56,4.92-8.88,4.92-4.08,0-7.44-3.18-7.44-7.44,0-5.52,5.34-8.34,15.6-10.92l.96-.24c0-4.68-1.32-7.98-5.52-7.98-2.52,0-5.52,1.68-7.44,4.92l-2.28-3.36c3.54-3,6.48-4.26,10.5-4.26,6.54,0,9.78,3.12,9.78,11.4v16.98h-5.04Zm0-15.3l-1.5.42c-7.2,2.04-9.9,4.56-9.9,7.32s1.8,4.5,4.38,4.5,5.22-1.62,7.02-4.26v-7.98Z"/>
    <path class="cls-2" d="m155.82,101.95v-17.58c0-4.98-1.74-6.84-5.22-6.84-2.4,0-5.22,1.86-7.14,4.2v20.22h-5.04v-26.7l5.04-1.5v4.44h.3c2.82-3.06,5.82-4.62,9.24-4.62,5.58,0,7.86,3.96,7.86,8.88v19.5h-5.04Z"/>
    <path class="cls-2" d="m184.92,99.49c-1.98,2.16-4.14,3.36-7.32,3.36-4.08,0-7.08-2.4-7.08-8.76v-16.8h-4.5v-2.82h4.5v-7.92l5.04-1.5v9.42h8.52v2.82h-8.52v17.46c0,3.42,1.44,4.86,3.48,4.86,1.68,0,3.18-.96,4.62-2.52l1.26,2.4Z"/>
  </g>
</svg>